<?xml version="1.0" encoding="UTF-8"?>
<svg width="1200pt" height="1200pt" version="1.1" viewBox="0 0 1200 1200" xmlns="http://www.w3.org/2000/svg">
 <path d="m600 36c-311.04 0-564 252.96-564 564s252.96 564 564 564 564-252.96 564-564-252.96-564-564-564zm532.08 564c0 12.602-0.60156 24.961-1.4414 37.32-13.441-15.602-25.801-23.762-40.32-26.762-2.8789-0.60156-5.5195-0.96094-7.8008-1.3203-8.5195-1.1992-14.16-2.0391-24.719-12.359-12.961-12.602-26.039-35.398-24.602-50.281 0.71875-7.9219 5.3984-15.961 10.32-24.359 8.6406-14.879 20.52-35.16 8.2812-59.762-10.922-21.961-37.559-33.602-71.16-31.078-22.078 1.6797-45 3.1211-63.48 2.7617-24.121-0.48047-39-4.1992-44.16-10.922-4.9219-6.4805-3.6016-20.16 3.7188-39.84 10.078-27.121 14.879-55.68-19.078-80.398-34.32-25.078-50.16-37.559-57.359-51.84-8.2812-16.559-6.6016-40.078-1.8008-91.922 1.8008-19.922 3.8398-33.84 15.238-46.32 187.21 82.441 318.36 269.76 318.36 487.08zm-801.96-458.28c5.1602 6.4805 7.1992 13.922 9 20.762 0.60156 2.2812 1.1992 4.4414 1.8008 6.4805 9.8398 30.359 27.359 49.922 52.32 58.078 28.922 9.6016 47.281 9.3594 63.121-0.83984 7.9219-5.1602 13.922-11.879 20.762-19.68 1.4414-1.6797 3-3.3594 4.5586-5.1602 11.281-12.48 15.121-14.398 34.68-16.68 42.48-4.9219 46.68 3 48.961 7.1992 6.4805 12.121 9.7188 21.84 9.6016 28.801-0.12109 4.6797-0.35938 14.641-30.719 27.359-9.8398 4.0781-18.238 11.762-27.121 19.801-7.5586 6.8398-15.359 13.922-23.762 18.48-15.961 8.6406-38.879 14.16-58.559 14.16-26.16 0-49.922 17.398-60.48 44.281-1.1992 3.2383-2.5195 6.6016-3.8398 10.078-7.8008 20.879-16.68 44.52-36.961 67.199-14.281 15.961-22.199 31.32-24.238 46.922-2.8789 22.199 7.1992 39.961 15 51.359 3.9609 5.8789 8.6406 11.398 13.078 16.68 2.2812 2.7617 4.5586 5.5195 6.8398 8.2812 11.52 14.52 39.719 30.48 74.398 31.441 14.398 0.35938 35.281 12.719 48.719 24.121l0.60156 0.48047c13.199 11.16 33 28.078 66.359 31.68 26.879 2.8789 30.602 15.602 31.801 19.801 3.6016 12.48-0.71875 29.281-6.4805 40.32-11.039 21-8.3984 41.641-5.8789 61.68 1.5586 12.602 3.2383 25.68 1.6797 39.719-3.1211 28.32-24.84 55.32-39.359 63.961-31.922 19.078-31.078 45.359-30.48 68.52 0.60156 19.922-9 35.879-18.238 42.121-2.0391 1.4414-6.1211 3.7188-9.8398 2.8789-3.3594-0.83984-6.8398-4.3203-9.7188-9.9609-5.8789-11.039-9.7188-26.762-14.281-45-8.0391-32.398-18.121-72.719-45.602-107.04-18.48-23.039-36.121-34.922-51-43.559-23.879-13.922-26.52-33.84-25.922-44.52 0.71875-14.281 6.3594-35.039 14.641-64.922 4.6797-16.801 4.1992-31.078-1.4414-43.801-5.7617-12.84-16.68-23.641-32.641-32.16-9.3594-4.9219-19.68-9.3594-29.641-13.68-14.52-6.2383-29.52-12.602-39-19.801-28.441-22.68-39-47.641-46.199-78.121l-1.5586-6.8398c-3.9609-17.281-7.1992-30.961-13.199-42.602-8.8789-16.922-22.441-27.359-45.602-34.68-0.71875-0.23828-1.4414-0.48047-2.2812-0.71875 45-101.76 121.08-186.72 216.12-242.88zm-262.2 458.28c0-65.398 11.879-128.04 33.602-186 1.5586 0.60156 3.1211 1.0781 4.6797 1.6797 17.039 5.3984 23.039 11.281 27 19.078 4.1992 8.0391 6.9609 19.922 10.441 35.039l1.5586 6.9609c7.4414 32.039 19.68 65.879 57.602 96 0.12109 0.12109 0.12109 0.12109 0.23828 0.23828 12.719 9.7188 29.641 16.922 45.961 23.879 9.8398 4.1992 19.078 8.1602 27.238 12.48 9.4805 5.0391 15.719 10.801 18.48 16.922 2.5195 5.7617 2.5195 12.602-0.12109 22.199-9.2383 32.879-14.879 54.238-15.84 71.879-1.5586 30.121 14.039 57.719 41.879 73.922 12.961 7.4414 26.879 17.039 42.121 35.879 23.039 28.801 31.801 63.84 39.48 94.68 4.8008 19.441 9.3594 37.801 17.039 52.32 9.3594 17.641 21.719 23.879 30.359 25.922 3 0.71875 6.1211 1.0781 9.3594 1.0781 8.8789 0 17.879-3 26.16-8.6406 20.281-13.922 32.879-41.16 32.039-69.359-0.71875-24.84 0.60156-31.559 14.879-40.078 23.398-13.922 50.52-49.441 54.84-87.84 1.9219-17.762 0-33.359-1.8008-47.16-2.1602-17.16-3.8398-30.719 2.3984-42.719 8.6406-16.32 15.48-41.762 8.8789-64.199-4.0781-14.039-17.16-38.16-59.039-42.719-23.641-2.5195-37.199-14.039-49.078-24.238l-0.60156-0.48047c-17.641-14.879-44.762-31.078-68.52-31.68-26.641-0.71875-45.602-13.559-50.16-19.32-2.5195-3.1211-4.9219-6.1211-7.3203-9-4.0781-4.9219-8.0391-9.6016-11.16-14.16-7.8008-11.398-10.801-20.398-9.6016-29.281 1.0781-8.8789 6.6016-18.84 16.32-29.641 24.359-27.121 34.801-54.961 43.078-77.281 1.1992-3.3594 2.3984-6.4805 3.6016-9.6016 5.7617-14.641 17.762-24 30.719-24 19.559 0 49.199-4.6797 73.801-18 11.762-6.3594 21.48-15.121 30-22.922 6.8398-6.2383 13.32-12 18.121-14.039 21.238-8.8789 49.441-24.359 50.281-56.039 0.35937-12.961-3.9609-27.238-13.441-44.762-13.922-25.801-42.359-28.199-80.762-23.762-25.078 2.8789-37.078 7.4414-54.719 27-1.6797 1.8008-3.2383 3.6016-4.8008 5.3984-5.5195 6.2383-9.9609 11.281-14.039 13.922-3.2383 2.1602-9.3594 6.1211-35.641-2.6406-15.121-5.0391-25.32-16.922-31.922-37.559-0.35938-1.3203-0.83984-2.8789-1.3203-4.9219-1.9219-7.3203-4.8008-17.762-11.641-28.078 72.488-37.316 154.45-58.434 241.45-58.434 64.199 0 125.88 11.398 182.88 32.398-12.719 18.602-14.641 38.16-16.32 56.039-4.9219 54.121-7.6797 83.879 5.1602 109.2 10.922 21.602 31.559 37.32 67.078 63.238 15.359 11.281 16.922 19.32 7.9219 43.32-7.4414 19.922-15.48 48.961 0.71875 70.32 15.121 19.922 44.762 23.039 68.879 23.52 18.602 0.35938 40.078-0.83984 66.48-2.8789 19.559-1.4414 35.281 3.8398 40.078 13.441 4.1992 8.3984 1.3203 14.762-7.3203 29.398-6.1211 10.559-13.199 22.559-14.641 37.441-2.5195 27 15.961 58.441 34.199 76.199 18.121 17.641 31.68 19.559 42.48 21.121 2.0391 0.23828 3.9609 0.60156 5.7617 0.96094 4.8008 0.96094 13.801 2.8789 32.16 28.441 3.4805 4.8008 6.6016 9 9.6016 12.961-10.68 68.039-34.441 131.76-68.398 188.76-13.441 1.0781-15.359-3.7188-22.199-21.602-9.6016-24.961-24.121-62.641-86.16-90.84-68.641-31.199-130.32-3-165.12 33.719-50.641 53.52-80.398 98.281-93.48 141-9.3594 30.359-8.1602 57.238 3.3594 77.762 13.801 24.602 19.441 46.078 17.16 65.52-1.8008 16.199-8.7617 30.602-18.602 46.441-29.879 5.2812-60.602 8.1602-91.922 8.1602-293.15 0.11328-531.83-238.57-531.83-531.96zm664.92 515.28c4.5586-10.559 8.0391-21.84 9.4805-34.199 3-26.398-3.9609-54.121-21.121-84.84-9-16.078-5.2812-37.559-0.60156-52.801 11.641-37.801 39-78.602 86.16-128.4 13.199-13.922 61.559-57.121 128.76-26.641 50.16 22.801 60.961 50.762 69.602 73.199 6.1211 16.078 12.961 33.602 33 39.84-71.883 104.04-179.64 181.32-305.28 213.84z"/>
</svg>
