<?xml version="1.0" encoding="UTF-8"?>
<svg width="1200pt" height="1200pt" version="1.1" viewBox="0 0 1200 1200" xmlns="http://www.w3.org/2000/svg">
 <g fill="#fff">
  <path d="m642.52 0c0 71.082 28.781 135.45 75.441 182.02 46.574 46.574 110.94 75.441 182.11 75.441 71.082 0 135.45-28.867 182.02-75.441 46.574-46.574 75.441-110.94 75.441-182.02h25.031c0 77.973-31.66 148.62-82.77 199.81-51.109 51.109-121.75 82.77-199.81 82.77-78.059 0-148.62-31.66-199.81-82.77-51.109-51.109-82.77-121.75-82.77-199.81z"/>
  <path d="m702.52 0c0 54.512 22.066 103.88 57.824 139.63 35.758 35.758 85.121 57.824 139.63 57.824s103.88-22.066 139.63-57.824c35.758-35.758 57.824-85.121 57.824-139.63h25.031c0 61.398-24.945 117.04-65.148 157.34-40.293 40.293-95.938 65.148-157.34 65.148-61.488 0-117.04-24.945-157.34-65.148-40.293-40.293-65.148-95.938-65.148-157.34h25.031z"/>
  <path d="m762.53 0c0 37.938 15.352 72.301 40.293 97.16 24.855 24.855 59.219 40.293 97.246 40.293 37.938 0 72.301-15.352 97.16-40.293 24.855-24.855 40.293-59.219 40.293-97.16h25.031c0 44.828-18.227 85.473-47.621 114.95-29.391 29.391-70.035 47.621-114.95 47.621-44.918 0-85.559-18.227-114.95-47.621-29.391-29.391-47.621-70.035-47.621-114.95z"/>
  <path d="m822.53 0c0 21.367 8.6328 40.73 22.676 54.77 14.043 14.043 33.402 22.676 54.77 22.676 21.367 0 40.73-8.6328 54.77-22.676 14.043-14.043 22.676-33.402 22.676-54.77h25.031c0 28.344-11.512 53.898-30.004 72.477-18.578 18.578-44.219 30.004-72.477 30.004-28.344 0-53.898-11.512-72.477-30.004-18.578-18.578-30.004-44.219-30.004-72.477z"/>
  <path d="m882.54 0c0 4.7969 1.918 9.2461 5.0586 12.383 3.1406 3.1406 7.5 5.1445 12.383 5.1445 4.8828 0 9.2461-1.918 12.383-5.0586 3.1406-3.1406 5.0586-7.5 5.0586-12.383h25.031c0 11.688-4.7969 22.328-12.473 30.004-7.6758 7.6758-18.316 12.473-30.004 12.473-11.773 0-22.414-4.7969-30.09-12.473-7.6758-7.6758-12.473-18.316-12.473-30.004h25.031z"/>
  <path d="m42.562 0c0 5.4062 0.17578 10.465 0.4375 15.176 0.26172 4.9727 0.78516 10.117 1.3945 15.262l-24.855 2.8789c-0.60937-5.4062-1.1328-10.902-1.4844-16.656-0.34766-5.8438-0.52344-11.34-0.52344-16.656h25.031zm227.02 255.71c5.1445 0.60938 10.293 1.0469 15.262 1.3945 4.7109 0.26172 9.7695 0.4375 15.176 0.4375 71.082 0 135.45-28.867 182.11-75.441 46.574-46.574 75.441-110.94 75.441-182.02h25.031c0 77.973-31.66 148.62-82.77 199.81-51.109 51.109-121.75 82.77-199.81 82.77-5.2344 0-10.816-0.17578-16.656-0.52344-5.7578-0.34766-11.25-0.87109-16.656-1.4844l2.8789-24.855z"/>
  <path d="m102.57 0c0 7.7617 0.4375 15.262 1.2227 22.5 0.87109 7.5 2.0938 14.828 3.75 22.066l-24.332 5.582c-1.918-8.1094-3.3125-16.484-4.2734-24.855-0.96094-8.3711-1.3945-16.832-1.3945-25.207h25.031zm152.89 192.4c7.2383 1.6562 14.566 2.9648 22.066 3.75 7.2383 0.78516 14.738 1.2227 22.5 1.2227 54.512 0 103.88-22.066 139.63-57.824s57.824-85.121 57.824-139.63h25.031c0 61.398-24.945 117.04-65.148 157.34-40.293 40.293-95.938 65.148-157.34 65.148-8.3711 0-16.832-0.52344-25.207-1.3945-8.4609-0.96094-16.746-2.3555-24.855-4.2734l5.582-24.422z"/>
  <path d="m162.57 0c0 37.938 15.352 72.301 40.293 97.16 24.855 24.855 59.219 40.293 97.16 40.293 37.938 0 72.301-15.352 97.246-40.293 24.855-24.855 40.293-59.219 40.293-97.16h25.031c0 44.828-18.227 85.473-47.621 114.95-29.391 29.391-70.035 47.621-114.95 47.621-44.828 0-85.473-18.227-114.95-47.621-29.391-29.391-47.621-70.035-47.621-114.95z"/>
  <path d="m222.49 0c0 21.367 8.6328 40.73 22.676 54.77 14.043 14.043 33.402 22.676 54.77 22.676 21.367 0 40.73-8.6328 54.77-22.676 14.043-14.043 22.676-33.402 22.676-54.77h25.031c0 28.344-11.512 53.898-30.004 72.477-18.578 18.578-44.219 30.004-72.477 30.004-28.344 0-53.898-11.512-72.477-30.004-18.578-18.578-30.004-44.219-30.004-72.477z"/>
  <path d="m282.58 0c0 4.7969 1.918 9.1562 5.1445 12.383 3.1406 3.1406 7.5 5.1445 12.383 5.1445 4.7969 0 9.1562-1.918 12.383-5.1445 3.1406-3.1406 5.0586-7.5 5.0586-12.383h25.031c0 11.688-4.7969 22.328-12.473 30.004-7.6758 7.6758-18.316 12.473-30.09 12.473s-22.328-4.7969-30.09-12.473c-7.6758-7.6758-12.473-18.316-12.473-30.09h25.031z"/>
  <path d="m1200 642.52c-71.082 0-135.45 28.781-182.02 75.441-46.574 46.574-75.441 110.94-75.441 182.11 0 71.082 28.867 135.45 75.441 182.02 46.574 46.574 110.94 75.441 182.02 75.441v25.031c-77.973 0-148.62-31.66-199.81-82.77-51.109-51.109-82.77-121.75-82.77-199.81 0-78.059 31.66-148.62 82.77-199.81 51.109-51.109 121.75-82.77 199.81-82.77z"/>
  <path d="m1200 702.52c-54.512 0-103.88 22.152-139.63 57.824-35.758 35.758-57.824 85.121-57.824 139.63s22.066 103.88 57.824 139.63c35.758 35.758 85.121 57.824 139.63 57.824v25.031c-61.398 0-117.04-24.945-157.34-65.148-40.293-40.293-65.148-95.938-65.148-157.34 0-61.488 24.945-117.04 65.148-157.34 40.293-40.293 95.938-65.148 157.34-65.148v25.031z"/>
  <path d="m1200 762.53c-37.938 0-72.301 15.352-97.16 40.293-24.855 24.855-40.293 59.219-40.293 97.246 0 37.938 15.352 72.301 40.293 97.16 24.855 24.855 59.219 40.293 97.16 40.293v25.031c-44.828 0-85.473-18.141-114.95-47.621-29.391-29.391-47.621-70.035-47.621-114.95 0-44.918 18.227-85.559 47.621-114.95 29.391-29.391 70.035-47.621 114.95-47.621z"/>
  <path d="m1200 822.53c-21.367 0-40.73 8.6328-54.77 22.676-14.043 14.043-22.676 33.402-22.676 54.77 0 21.367 8.6328 40.73 22.676 54.77 14.043 14.043 33.402 22.676 54.77 22.676v25.031c-28.344 0-53.898-11.512-72.477-30.004-18.578-18.578-30.004-44.219-30.004-72.477 0-28.344 11.512-53.898 30.004-72.477 18.578-18.578 44.219-30.004 72.477-30.004z"/>
  <path d="m1200 882.54c-4.7969 0-9.2461 1.918-12.383 5.0586-3.1406 3.1406-5.1445 7.5-5.1445 12.383 0 4.7969 1.918 9.1562 5.1445 12.383 3.1406 3.1406 7.5 5.1445 12.383 5.1445v25.031c-11.773 0-22.328-4.7969-30.09-12.473-7.6758-7.6758-12.473-18.316-12.473-30.09 0-11.773 4.7969-22.414 12.473-30.09 7.6758-7.6758 18.316-12.473 30.004-12.473v25.031z"/>
  <path d="m1200 42.562c-5.4062 0-10.465 0.17578-15.176 0.4375-4.9727 0.26172-10.117 0.78516-15.262 1.3945l-2.8789-24.855c5.4062-0.60937 10.902-1.1328 16.656-1.4844 5.8438-0.34766 11.34-0.52344 16.656-0.52344v25.031zm-255.71 227.02c-0.60938 5.1445-1.0469 10.293-1.3945 15.262-0.26172 4.7109-0.4375 9.7695-0.4375 15.176 0 71.082 28.867 135.45 75.441 182.11 46.574 46.574 110.94 75.441 182.02 75.441v25.031c-77.973 0-148.62-31.66-199.81-82.77-51.109-51.109-82.77-121.75-82.77-199.81 0-5.2344 0.17578-10.816 0.52344-16.656 0.34766-5.7578 0.87109-11.34 1.4844-16.656l24.855 2.8789z"/>
  <path d="m1200 102.57c-7.7617 0-15.262 0.4375-22.5 1.2227-7.5 0.87109-14.828 2.0938-22.066 3.75l-5.582-24.422c8.1094-1.832 16.484-3.3125 24.855-4.2734 8.3711-0.96094 16.832-1.3945 25.207-1.3945v25.031zm-192.4 152.89c-1.6562 7.2383-2.9648 14.566-3.75 22.066-0.78516 7.2383-1.2227 14.738-1.2227 22.5 0 54.512 22.066 103.88 57.824 139.63s85.121 57.824 139.63 57.824v25.031c-61.398 0-117.04-24.945-157.34-65.148-40.293-40.293-65.148-95.938-65.148-157.34 0-8.3711 0.52344-16.832 1.3945-25.207 0.96094-8.4609 2.3555-16.746 4.2734-24.855l24.422 5.582z"/>
  <path d="m1200 162.48c-37.938 0-72.301 15.352-97.16 40.293-24.855 24.855-40.293 59.219-40.293 97.16 0 37.938 15.352 72.301 40.293 97.246 24.855 24.855 59.219 40.293 97.16 40.293v25.031c-44.828 0-85.473-18.227-114.95-47.621-29.391-29.391-47.621-70.035-47.621-114.95 0-44.828 18.227-85.473 47.621-114.95 29.391-29.391 70.035-47.621 114.95-47.621z"/>
  <path d="m1200 222.49c-21.367 0-40.73 8.6328-54.77 22.676-14.043 14.043-22.676 33.402-22.676 54.77 0 21.367 8.6328 40.73 22.676 54.77 14.043 14.043 33.402 22.676 54.77 22.676v25.031c-28.344 0-53.898-11.426-72.477-30.004-18.578-18.578-30.004-44.219-30.004-72.477 0-28.344 11.512-53.898 30.004-72.477 18.578-18.578 44.219-30.004 72.477-30.004z"/>
  <path d="m1200 282.49c-4.8828 0-9.2461 1.918-12.383 5.0586l-0.085938 0.085938c-3.1406 3.1406-5.0586 7.5-5.0586 12.383 0 4.7969 1.918 9.1562 5.1445 12.383 3.1406 3.1406 7.5 5.0586 12.383 5.0586v25.031c-11.688 0-22.328-4.7969-30.004-12.473-7.6758-7.6758-12.473-18.316-12.473-30.09 0-11.688 4.7969-22.328 12.473-30.004 7.7617-7.6758 18.316-12.473 30.004-12.473z"/>
  <path d="m0 617.49c78.059 0 148.7 31.66 199.81 82.77 51.109 51.109 82.77 121.75 82.77 199.81 0 5.2344-0.17578 10.816-0.52344 16.656-0.34766 5.7578-0.87109 11.25-1.4844 16.656l-24.855-2.8789c0.60938-5.1445 1.0469-10.293 1.3945-15.262 0.26172-4.7109 0.4375-9.7695 0.4375-15.176 0-71.082-28.867-135.45-75.441-182.11-46.574-46.574-110.94-75.441-182.11-75.441v-25.031zm33.316 563.06c-5.4062 0.60938-10.902 1.1328-16.656 1.4844-5.8438 0.34766-11.34 0.52344-16.656 0.52344v-25.031c5.4062 0 10.465-0.17578 15.176-0.4375 4.9727-0.26172 10.117-0.78516 15.262-1.3945l2.8789 24.855z"/>
  <path d="m0 677.49c61.488 0 117.04 24.945 157.34 65.148 40.293 40.293 65.148 95.938 65.148 157.34 0 8.3711-0.52344 16.832-1.3945 25.207-0.96094 8.4609-2.3555 16.746-4.2734 24.855l-24.422-5.582c1.6562-7.2383 2.9648-14.566 3.75-22.066 0.78516-7.2383 1.2227-14.738 1.2227-22.5 0-54.512-22.066-103.88-57.824-139.63-35.758-35.758-85.121-57.824-139.63-57.824v-25.031zm50.148 439.39c-8.1094 1.918-16.484 3.3125-24.855 4.2734-8.3711 0.96094-16.832 1.3945-25.293 1.3945v-25.031c7.7617 0 15.262-0.4375 22.5-1.2227 7.5-0.87109 14.828-2.0938 22.066-3.75l5.582 24.332z"/>
  <path d="m0 737.41c44.918 0 85.559 18.227 114.95 47.621 29.391 29.391 47.621 70.035 47.621 114.95 0 44.828-18.227 85.473-47.621 114.95-29.391 29.391-70.035 47.621-114.95 47.621v-25.031c37.938 0 72.301-15.352 97.246-40.293 24.855-24.855 40.293-59.219 40.293-97.16 0-37.938-15.352-72.301-40.293-97.246-24.855-24.855-59.219-40.293-97.246-40.293z"/>
  <path d="m0 797.5c28.344 0 53.898 11.512 72.477 30.004 18.578 18.578 30.004 44.219 30.004 72.477 0 28.344-11.426 53.898-30.004 72.477-18.578 18.578-44.219 30.004-72.477 30.004v-25.031c21.367 0 40.816-8.6328 54.77-22.676 14.043-14.043 22.676-33.402 22.676-54.77s-8.6328-40.73-22.676-54.77c-14.043-14.043-33.402-22.676-54.77-22.676z"/>
  <path d="m0 857.42c11.688 0 22.328 4.7969 30.004 12.473 7.6758 7.6758 12.473 18.316 12.473 30.09 0 11.688-4.7969 22.328-12.473 30.004v0.085937c-7.6758 7.6758-18.316 12.473-30.004 12.473v-25.031c4.8828 0 9.2461-1.918 12.383-5.0586 3.1406-3.1406 5.0586-7.5 5.0586-12.383 0-4.7969-1.918-9.1562-5.1445-12.383-3.1406-3.1406-7.5-5.0586-12.383-5.0586v-25.031z"/>
  <path d="m0 17.441c78.059 0 148.7 31.66 199.81 82.77 51.109 51.109 82.77 121.75 82.77 199.81 0 78.059-31.66 148.62-82.77 199.81-51.109 51.109-121.75 82.77-199.81 82.77v-25.031c71.082 0 135.45-28.781 182.11-75.441 46.574-46.574 75.441-110.94 75.441-182.11 0-71.082-28.867-135.45-75.441-182.02-46.574-46.574-110.94-75.441-182.11-75.441z"/>
  <path d="m0 77.449c61.488 0 117.04 24.945 157.34 65.148 40.293 40.293 65.148 95.938 65.148 157.34 0 61.488-24.945 117.04-65.148 157.34-40.293 40.293-95.938 65.148-157.34 65.148v-25.031c54.512 0 103.88-22.066 139.63-57.824 35.758-35.758 57.824-85.121 57.824-139.63 0-54.512-22.066-103.88-57.824-139.63-35.758-35.758-85.121-57.824-139.63-57.824v-25.031z"/>
  <path d="m0 137.45c44.918 0 85.559 18.227 114.95 47.621 29.391 29.391 47.621 70.035 47.621 114.95 0 44.918-18.227 85.559-47.621 114.95-29.391 29.391-70.035 47.621-114.95 47.621v-25.031c37.938 0 72.301-15.352 97.246-40.293 24.855-24.855 40.293-59.219 40.293-97.246 0-37.938-15.352-72.301-40.293-97.16-24.855-24.855-59.219-40.293-97.246-40.293z"/>
  <path d="m0 197.46c28.344 0 53.988 11.512 72.477 30.004 18.578 18.578 30.004 44.219 30.004 72.477 0 28.344-11.426 53.898-30.004 72.477-18.578 18.578-44.219 30.004-72.477 30.004v-25.031c21.367 0 40.816-8.6328 54.77-22.676 14.043-14.043 22.676-33.402 22.676-54.77 0-21.367-8.6328-40.73-22.676-54.77-14.043-14.043-33.402-22.676-54.77-22.676z"/>
  <path d="m0 257.46c11.773 0 22.414 4.7969 30.09 12.473 7.6758 7.6758 12.473 18.316 12.473 30.09 0 11.773-4.7969 22.414-12.473 30.09-7.6758 7.6758-18.316 12.473-30.004 12.473v-25.031c4.8828 0 9.2461-1.918 12.383-5.0586 3.1406-3.1406 5.1445-7.5 5.1445-12.383 0-4.7969-1.918-9.1562-5.1445-12.383-3.1406-3.1406-7.5-5.1445-12.383-5.1445v-25.031z"/>
  <path d="m617.49 1200c0-78.059 31.66-148.7 82.77-199.81 51.109-51.109 121.75-82.77 199.81-82.77 5.2344 0 10.816 0.17578 16.656 0.52344 5.7578 0.34766 11.34 0.87109 16.656 1.4844l-2.8789 24.855c-5.1445-0.60938-10.293-1.0469-15.262-1.3945-4.7109-0.26172-9.7695-0.4375-15.176-0.4375-71.082 0-135.45 28.867-182.11 75.441-46.574 46.574-75.441 110.94-75.441 182.11h-25.031zm563.06-33.316c0.60938 5.4062 1.1328 10.902 1.4844 16.656 0.34766 5.8438 0.52344 11.34 0.52344 16.656h-25.031c0-5.4062-0.17578-10.465-0.4375-15.176-0.26172-4.9727-0.78516-10.117-1.3945-15.262l24.855-2.8789z"/>
  <path d="m677.49 1200c0-61.488 24.945-117.04 65.148-157.34 40.293-40.293 95.938-65.148 157.34-65.148 8.3711 0 16.832 0.52344 25.207 1.3945 8.4609 0.96094 16.746 2.3555 24.855 4.2734l-5.582 24.422c-7.2383-1.6562-14.566-2.9648-22.066-3.75-7.2383-0.78516-14.738-1.2227-22.5-1.2227-54.512 0-103.88 22.066-139.63 57.824-35.758 35.758-57.824 85.121-57.824 139.63h-25.031zm439.39-50.148c1.832 8.1094 3.3125 16.484 4.2734 24.855 0.96094 8.3711 1.3945 16.832 1.3945 25.293h-25.031c0-7.7617-0.4375-15.262-1.2227-22.5-0.87109-7.5-2.0938-14.828-3.75-22.066l24.422-5.582z"/>
  <path d="m737.5 1200c0-44.918 18.227-85.559 47.621-114.95 29.391-29.391 70.035-47.621 114.95-47.621 44.828 0 85.473 18.227 114.95 47.621 29.391 29.391 47.621 70.035 47.621 114.95h-25.031c0-37.938-15.352-72.301-40.293-97.246-24.855-24.855-59.219-40.293-97.16-40.293-37.938 0-72.301 15.352-97.246 40.293-24.855 24.855-40.293 59.219-40.293 97.246z"/>
  <path d="m797.5 1200c0-28.344 11.426-53.898 30.004-72.477 18.578-18.578 44.219-30.004 72.477-30.004 28.344 0 53.898 11.426 72.477 30.004 18.578 18.578 30.004 44.219 30.004 72.477h-25.031c0-21.367-8.6328-40.816-22.676-54.77-14.043-14.043-33.402-22.676-54.77-22.676s-40.73 8.6328-54.77 22.676c-14.043 14.043-22.676 33.402-22.676 54.77z"/>
  <path d="m857.5 1200c0-11.688 4.7969-22.328 12.473-30.004 7.6758-7.6758 18.316-12.473 30.09-12.473 11.773 0 22.328 4.7969 30.09 12.473 7.6758 7.6758 12.473 18.316 12.473 30.09h-25.031c0-4.7969-1.918-9.1562-5.1445-12.383-3.1406-3.1406-7.5-5.1445-12.383-5.1445-4.7969 0-9.1562 1.918-12.383 5.1445-3.1406 3.1406-5.0586 7.5-5.0586 12.383h-25.031z"/>
  <path d="m17.441 1200c0-78.059 31.66-148.7 82.77-199.81 51.109-51.109 121.75-82.77 199.81-82.77 78.059 0 148.62 31.66 199.81 82.77 51.109 51.109 82.77 121.75 82.77 199.81h-25.031c0-71.082-28.781-135.45-75.441-182.11-46.574-46.574-110.94-75.441-182.11-75.441-71.082 0-135.45 28.867-182.02 75.441-46.574 46.574-75.441 110.94-75.441 182.11z"/>
  <path d="m77.449 1200c0-61.488 24.945-117.04 65.148-157.34 40.293-40.293 95.938-65.148 157.34-65.148 61.488 0 117.04 24.945 157.34 65.148 40.293 40.293 65.148 95.938 65.148 157.34h-25.031c0-54.512-22.066-103.88-57.824-139.63-35.758-35.758-85.121-57.824-139.63-57.824-54.512 0-103.88 22.066-139.63 57.824-35.758 35.758-57.824 85.121-57.824 139.63h-25.031z"/>
  <path d="m137.45 1200c0-44.918 18.227-85.559 47.621-114.95 29.391-29.391 70.035-47.621 114.95-47.621 44.918 0 85.559 18.227 114.95 47.621 29.391 29.391 47.621 70.035 47.621 114.95h-25.031c0-37.938-15.352-72.301-40.293-97.246-24.855-24.855-59.219-40.293-97.246-40.293-37.938 0-72.301 15.352-97.16 40.293-24.855 24.855-40.293 59.219-40.293 97.246z"/>
  <path d="m197.46 1200c0-28.344 11.512-53.898 30.004-72.477 18.578-18.578 44.219-30.004 72.477-30.004 28.344 0 53.898 11.426 72.477 30.004 18.578 18.578 30.004 44.219 30.004 72.477h-25.031c0-21.367-8.6328-40.816-22.676-54.77-14.043-14.043-33.402-22.676-54.77-22.676-21.367 0-40.73 8.6328-54.77 22.676-14.043 14.043-22.676 33.402-22.676 54.77z"/>
  <path d="m257.46 1200c0-11.688 4.7109-22.328 12.473-30.004 7.7617-7.6758 18.316-12.473 30.004-12.473 11.773 0 22.414 4.7969 30.09 12.473 7.6758 7.6758 12.473 18.316 12.473 30.004h-25.031c0-4.8828-1.918-9.2461-5.0586-12.383-3.1406-3.1406-7.5-5.1445-12.383-5.1445-4.8828 0-9.2461 1.918-12.383 5.0586l-0.085937 0.085938c-3.1406 3.1406-5.0586 7.5-5.0586 12.383z"/>
  <path d="m143.04 665.11c22.852-15.262 47.969-27.297 74.918-35.496 26.078-7.9375 53.637-12.121 82.07-12.121 78.059 0 148.62 31.66 199.81 82.77 51.109 51.109 82.77 121.75 82.77 199.81 0 28.434-4.2734 55.992-12.121 82.07-8.1094 26.863-20.234 52.066-35.496 74.918l-20.758-13.867c13.953-20.844 24.945-43.781 32.355-68.203 7.1523-23.547 10.988-48.668 10.988-74.832 0-71.082-28.781-135.45-75.441-182.11-46.574-46.574-110.94-75.441-182.11-75.441-26.164 0-51.281 3.8359-74.832 10.988-24.422 7.4141-47.445 18.402-68.203 32.355l-13.867-20.758z"/>
  <path d="m191.88 705.49c16.223-9.0703 33.754-16.137 52.242-20.934 17.965-4.6211 36.719-7.1523 55.906-7.1523 61.488 0 117.04 24.945 157.34 65.148 40.293 40.293 65.148 95.938 65.148 157.34 0 19.188-2.4414 37.938-7.1523 55.906-4.7969 18.488-11.859 35.934-20.934 52.242l-21.805-12.121c8.0234-14.477 14.305-30.004 18.578-46.312 4.0977-15.699 6.2812-32.355 6.2812-49.625 0-54.512-22.152-103.88-57.824-139.63-35.758-35.758-85.121-57.824-139.63-57.824-17.27 0-33.926 2.1797-49.625 6.2812-16.398 4.2734-31.922 10.555-46.312 18.578l-12.121-21.805z"/>
  <path d="m228.59 754.07c10.988-5.4062 22.676-9.5938 34.711-12.383 11.859-2.7031 24.16-4.1875 36.719-4.1875 44.918 0 85.559 18.227 114.95 47.621 29.391 29.391 47.621 70.035 47.621 114.95 0 12.559-1.4844 24.855-4.1875 36.719-2.7891 12.121-6.9766 23.723-12.383 34.711l-22.414-10.988c4.5352-9.1562 8.0234-19.012 10.465-29.391 2.2695-9.9414 3.4883-20.32 3.4883-31.137 0-37.938-15.352-72.301-40.293-97.246-24.855-24.855-59.219-40.293-97.246-40.293-10.816 0-21.195 1.2227-31.137 3.4883-10.293 2.3555-20.148 5.9297-29.391 10.465l-10.988-22.414z"/>
  <path d="m252.23 809.27c7.2383-3.8359 15-6.8047 23.113-8.8086 7.9375-1.918 16.223-2.9648 24.594-2.9648 28.344 0 53.898 11.512 72.477 30.004 18.578 18.578 30.004 44.219 30.004 72.477 0 8.3711-1.0469 16.656-2.9648 24.594-2.0078 8.1094-4.9727 15.875-8.8086 23.113l-22.152-11.688c2.8789-5.4961 5.1445-11.34 6.6289-17.441 1.4844-5.8438 2.2695-12.121 2.2695-18.664 0-21.367-8.6328-40.73-22.676-54.77-14.043-14.043-33.402-22.676-54.77-22.676-6.543 0-12.734 0.78516-18.664 2.2695-6.1055 1.4844-12.035 3.75-17.441 6.6289l-11.688-22.152z"/>
  <path d="m257.46 899.98c0-11.773 4.7969-22.414 12.473-30.09h0.085937c7.6758-7.6758 18.316-12.473 30.004-12.473 11.773 0 22.414 4.7969 30.09 12.473s12.473 18.316 12.473 30.09c0 11.688-4.7969 22.328-12.473 30.004v0.085937c-7.6758 7.6758-18.316 12.473-30.09 12.473v-25.031c4.7969 0 9.1562-1.918 12.383-5.1445 3.1406-3.1406 5.0586-7.5 5.0586-12.383 0-4.7969-1.918-9.1562-5.1445-12.383-3.1406-3.1406-7.5-5.1445-12.383-5.1445s-9.2461 1.918-12.383 5.0586c-3.1406 3.1406-5.1445 7.5-5.1445 12.383h-25.031z"/>
  <path d="m1043 685.86c-20.844-13.953-43.781-24.945-68.203-32.355-23.547-7.1523-48.668-10.988-74.832-10.988-71.082 0-135.45 28.781-182.11 75.441-46.574 46.574-75.441 110.94-75.441 182.11 0 26.164 3.8359 51.281 10.988 74.832 7.4141 24.422 18.402 47.445 32.355 68.203l-20.758 13.867c-15.262-22.852-27.297-47.969-35.496-74.918-7.9375-26.078-12.121-53.637-12.121-82.07 0-78.059 31.66-148.62 82.77-199.81 51.109-51.109 121.75-82.77 199.81-82.77 28.434 0 55.992 4.2734 82.07 12.121 26.863 8.1094 52.066 20.234 74.918 35.496l-13.867 20.758z"/>
  <path d="m996 727.29c-14.477-8.0234-30.004-14.305-46.312-18.578-15.785-4.0977-32.355-6.2812-49.625-6.2812-54.512 0-103.88 22.066-139.63 57.824-35.758 35.758-57.824 85.121-57.824 139.63 0 17.27 2.1797 33.926 6.2812 49.625 4.2734 16.398 10.555 31.922 18.578 46.312l-21.805 12.121c-9.0703-16.223-16.137-33.754-20.934-52.242-4.6211-17.965-7.1523-36.719-7.1523-55.906 0-61.488 24.945-117.04 65.148-157.34 40.293-40.293 95.938-65.148 157.34-65.148 19.188 0 37.938 2.4414 55.906 7.1523 18.402 4.7969 35.934 11.859 52.242 20.934l-12.121 21.805z"/>
  <path d="m960.5 776.48c-9.1562-4.5352-19.012-8.0234-29.391-10.465-9.9414-2.2695-20.32-3.4883-31.137-3.4883-37.938 0-72.301 15.352-97.246 40.293-24.855 24.855-40.293 59.219-40.293 97.246 0 10.816 1.2227 21.195 3.4883 31.137 2.3555 10.293 5.9297 20.148 10.465 29.391l-22.414 10.988c-5.4062-10.988-9.5938-22.676-12.383-34.711-2.7031-11.859-4.1875-24.16-4.1875-36.719 0-44.918 18.227-85.559 47.621-114.95 29.391-29.391 70.035-47.621 114.95-47.621 12.559 0 24.855 1.4844 36.719 4.1875 12.121 2.7891 23.723 6.9766 34.711 12.383l-10.988 22.414z"/>
  <path d="m936.09 831.43c-5.4961-2.8789-11.34-5.1445-17.441-6.6289-5.8438-1.4844-12.121-2.2695-18.664-2.2695-21.367 0-40.73 8.6328-54.77 22.676-14.043 14.043-22.676 33.402-22.676 54.77 0 6.543 0.78516 12.734 2.2695 18.664 1.4844 6.1055 3.75 12.035 6.6289 17.441l-22.152 11.688c-3.8359-7.2383-6.8047-15-8.8086-23.113-2.0078-7.9375-2.9648-16.223-2.9648-24.594 0-28.344 11.512-53.898 30.004-72.477 18.578-18.578 44.219-30.004 72.477-30.004 8.3711 0 16.656 1.0469 24.594 2.9648 8.1094 2.0078 15.875 4.9727 23.113 8.8086l-11.688 22.152z"/>
  <path d="m917.42 899.98c0-4.7969-1.918-9.1562-5.1445-12.383-3.1406-3.1406-7.5-5.0586-12.383-5.0586-4.7969 0-9.1562 1.918-12.383 5.1445-3.1406 3.1406-5.1445 7.5-5.1445 12.383s1.918 9.2461 5.0586 12.383c3.1406 3.1406 7.5 5.1445 12.383 5.1445v25.031c-11.773 0-22.414-4.7969-30.09-12.473v-0.085938c-7.6758-7.6758-12.473-18.316-12.473-30.004 0-11.773 4.7969-22.414 12.473-30.09s18.316-12.473 30.09-12.473c11.688 0 22.328 4.7969 30.004 12.473s12.473 18.316 12.473 30.09h-25.031z"/>
  <path d="m156.99 514.14c20.844 13.953 43.781 24.945 68.203 32.355 23.547 7.1523 48.668 10.988 74.832 10.988 71.082 0 135.45-28.781 182.11-75.441 46.574-46.574 75.441-110.94 75.441-182.11 0-26.164-3.8359-51.281-10.988-74.832-7.4141-24.422-18.402-47.445-32.355-68.203l20.758-13.867c15.262 22.762 27.297 47.969 35.496 74.918 7.9375 26.078 12.121 53.637 12.121 82.07 0 78.059-31.66 148.62-82.77 199.81-51.109 51.109-121.75 82.77-199.81 82.77-28.434 0-55.992-4.2734-82.07-12.121-26.863-8.1094-52.066-20.234-74.918-35.496l13.867-20.758z"/>
  <path d="m204 472.62c14.477 8.0234 30.004 14.305 46.312 18.578 15.785 4.0977 32.355 6.2812 49.625 6.2812 54.512 0 103.88-22.066 139.63-57.824 35.758-35.758 57.824-85.121 57.824-139.63 0-17.27-2.1797-33.84-6.2812-49.625-4.2734-16.398-10.555-31.922-18.578-46.312l21.805-12.121c9.0703 16.223 16.137 33.754 20.934 52.242 4.6211 17.965 7.1523 36.719 7.1523 55.906 0 61.488-24.945 117.04-65.148 157.34-40.293 40.293-95.938 65.148-157.34 65.148-19.188 0-37.938-2.4414-55.906-7.1523-18.402-4.7969-35.934-11.859-52.242-20.934l12.121-21.805z"/>
  <path d="m239.5 423.52c9.1562 4.5352 19.012 8.0234 29.391 10.465 9.9414 2.2695 20.32 3.4883 31.137 3.4883 37.938 0 72.301-15.352 97.246-40.293 24.855-24.855 40.293-59.219 40.293-97.246 0-10.816-1.2227-21.195-3.4883-31.137-2.3555-10.379-5.9297-20.148-10.465-29.391l22.414-10.988c5.4062 10.988 9.5938 22.676 12.383 34.711 2.7031 11.859 4.1875 24.16 4.1875 36.719 0 44.918-18.227 85.559-47.621 114.95-29.391 29.391-70.035 47.621-114.95 47.621-12.559 0-24.855-1.4844-36.719-4.1875-12.121-2.7891-23.723-6.9766-34.711-12.383l10.988-22.414z"/>
  <path d="m263.91 368.57c5.4961 2.8789 11.34 5.1445 17.441 6.6289 5.8438 1.4844 12.121 2.2695 18.664 2.2695 21.367 0 40.73-8.6328 54.77-22.676 14.043-14.043 22.676-33.402 22.676-54.77 0-6.543-0.78516-12.734-2.2695-18.664-1.4844-6.1055-3.75-12.035-6.6289-17.441l22.152-11.688c3.8359 7.2383 6.8047 15 8.8086 23.113 1.918 7.9375 2.9648 16.223 2.9648 24.594 0 28.344-11.512 53.898-30.004 72.477-18.578 18.578-44.219 30.004-72.477 30.004-8.3711 0-16.656-1.0469-24.594-2.9648-8.1094-2.0078-15.875-4.9727-23.113-8.8086l11.688-22.152z"/>
  <path d="m282.58 300.02c0 4.7969 1.918 9.1562 5.1445 12.383 3.1406 3.1406 7.5 5.0586 12.383 5.0586 4.7969 0 9.1562-1.918 12.383-5.1445 3.1406-3.1406 5.1445-7.5 5.1445-12.383s-1.918-9.2461-5.0586-12.383c-3.1406-3.1406-7.5-5.1445-12.383-5.1445v-25.031c11.773 0 22.414 4.7969 30.09 12.473 7.6758 7.6758 12.473 18.316 12.473 30.004 0 11.773-4.7969 22.414-12.473 30.09-7.6758 7.6758-18.316 12.473-30.09 12.473-11.688 0-22.328-4.7969-30.004-12.473h-0.085938c-7.6758-7.6758-12.473-18.316-12.473-30.09h25.031z"/>
  <path d="m1057 534.89c-22.762 15.262-47.969 27.297-74.918 35.496-26.078 7.9375-53.637 12.121-82.07 12.121-78.059 0-148.62-31.66-199.81-82.77-51.109-51.109-82.77-121.75-82.77-199.81 0-28.434 4.2734-55.992 12.121-82.07 8.1094-26.863 20.234-52.066 35.496-74.918l20.758 13.867c-13.953 20.844-24.945 43.781-32.355 68.203-7.1523 23.547-10.988 48.668-10.988 74.832 0 71.082 28.781 135.45 75.441 182.11 46.574 46.574 110.94 75.441 182.11 75.441 26.164 0 51.281-3.8359 74.832-10.988 24.422-7.4141 47.445-18.402 68.203-32.355l13.867 20.758z"/>
  <path d="m1008.1 494.51c-16.223 9.0703-33.754 16.137-52.242 20.934-17.965 4.6211-36.719 7.1523-55.906 7.1523-61.488 0-117.04-24.945-157.34-65.148-40.293-40.293-65.148-95.938-65.148-157.34 0-19.188 2.4414-37.938 7.1523-55.906 4.7969-18.488 11.859-35.934 20.934-52.242l21.805 12.121c-8.0234 14.477-14.305 30.004-18.578 46.312-4.0977 15.785-6.2812 32.355-6.2812 49.625 0 54.512 22.066 103.88 57.824 139.63 35.758 35.758 85.121 57.824 139.63 57.824 17.27 0 33.926-2.1797 49.625-6.2812 16.398-4.2734 31.922-10.555 46.312-18.578l12.121 21.805z"/>
  <path d="m971.41 445.93c-10.988 5.4062-22.676 9.5938-34.711 12.383-11.859 2.7031-24.16 4.1875-36.719 4.1875-44.918 0-85.559-18.227-114.95-47.621-29.391-29.391-47.621-70.035-47.621-114.95 0-12.559 1.4844-24.855 4.1875-36.719 2.7891-12.121 6.9766-23.723 12.383-34.711l22.414 10.988c-4.5352 9.1562-8.0234 19.012-10.465 29.391-2.2695 9.9414-3.4883 20.32-3.4883 31.137 0 37.938 15.352 72.301 40.293 97.246 24.855 24.855 59.219 40.293 97.246 40.293 10.816 0 21.195-1.2227 31.137-3.4883 10.379-2.3555 20.148-5.9297 29.391-10.465l10.988 22.414z"/>
  <path d="m947.77 390.73c-7.2383 3.8359-15 6.8047-23.113 8.8086-7.9375 2.0078-16.223 2.9648-24.594 2.9648-28.344 0-53.898-11.426-72.477-30.004s-30.004-44.219-30.004-72.477c0-8.3711 1.0469-16.656 2.9648-24.594 2.0078-8.1094 4.9727-15.875 8.8086-23.113l22.152 11.688c-2.8789 5.4961-5.1445 11.34-6.6289 17.441-1.4844 5.8438-2.2695 12.121-2.2695 18.664 0 21.367 8.6328 40.73 22.676 54.77 14.043 14.043 33.402 22.676 54.77 22.676 6.543 0 12.734-0.78516 18.664-2.2695 6.1055-1.4844 12.035-3.75 17.441-6.6289l11.688 22.152z"/>
  <path d="m942.54 300.02c0 11.773-4.7969 22.414-12.473 30.09-7.6758 7.6758-18.316 12.473-30.004 12.473-11.773 0-22.414-4.7969-30.09-12.473-7.6758-7.6758-12.473-18.316-12.473-30.09 0-11.688 4.7969-22.328 12.473-30.004 7.6758-7.6758 18.316-12.473 30.09-12.473v25.031c-4.7969 0-9.1562 1.918-12.383 5.1445-3.1406 3.1406-5.0586 7.5-5.0586 12.383 0 4.7969 1.918 9.1562 5.1445 12.383 3.1406 3.1406 7.5 5.1445 12.383 5.1445 4.8828 0 9.2461-1.918 12.383-5.0586 3.1406-3.1406 5.1445-7.5 5.1445-12.383h25.031z"/>
 </g>
</svg>
