<?xml version="1.0" encoding="UTF-8"?>
<svg width="1200pt" height="1200pt" version="1.1" viewBox="0 0 1200 1200" xmlns="http://www.w3.org/2000/svg">
 <g fill="#fff">
  <path d="m1101.7 98.32c65.562 65.516 98.32 151.47 98.32 237.39 0 85.91-32.805 171.82-98.32 237.39-65.516 65.516-151.47 98.32-237.39 98.32-85.91 0-171.82-32.805-237.39-98.32l21.68-21.68c59.57 59.57 137.64 89.336 215.71 89.336 78.066 0 156.13-29.762 215.71-89.336 59.57-59.57 89.336-137.64 89.336-215.71 0-78.066-29.809-156.13-89.336-215.71z"/>
  <path d="m1063.9 136.07c55.102 55.102 82.68 127.37 82.68 199.64 0 72.219-27.574 144.53-82.68 199.64-55.102 55.102-127.37 82.68-199.64 82.68-72.219 0-144.48-27.574-199.64-82.68l21.68-21.68c49.16 49.16 113.54 73.691 177.96 73.691 64.375 0 128.8-24.578 177.91-73.691 49.16-49.16 73.738-113.54 73.738-177.96s-24.578-128.8-73.691-177.96l21.68-21.68z"/>
  <path d="m1026.2 173.82c44.691 44.691 67.035 103.27 67.035 161.89 0 58.574-22.344 117.15-67.035 161.89-44.691 44.691-103.27 67.035-161.89 67.035-58.574 0-117.15-22.344-161.89-67.035l21.68-21.68c38.699 38.699 89.477 58.098 140.21 58.098s101.46-19.398 140.21-58.098c38.699-38.699 58.051-89.477 58.051-140.21s-19.352-101.46-58.051-140.21z"/>
  <path d="m988.38 211.62c34.277 34.277 51.395 79.207 51.395 124.09 0 44.93-17.117 89.855-51.395 124.14-34.277 34.277-79.207 51.395-124.09 51.395-44.93 0-89.855-17.164-124.14-51.395l21.68-21.68c28.289 28.289 65.371 42.41 102.46 42.41 37.086 0 74.168-14.168 102.41-42.41 28.289-28.289 42.457-65.371 42.457-102.46 0-37.086-14.168-74.168-42.457-102.41z"/>
  <path d="m950.59 249.37c23.867 23.867 35.848 55.152 35.848 86.34 0 31.234-11.934 62.52-35.754 86.34-23.82 23.82-55.102 35.754-86.34 35.754-31.234 0-62.52-11.934-86.34-35.754l21.68-21.68c17.875 17.875 41.27 26.816 64.66 26.816s46.832-8.9375 64.66-26.766c17.875-17.875 26.816-41.27 26.816-64.707s-8.9375-46.879-26.719-64.66l21.539-21.68z"/>
  <path d="m912.88 287.12c13.406 13.406 20.109 31 20.109 48.59 0 17.59-6.7031 35.184-20.109 48.59s-31 20.109-48.59 20.109c-17.59 0-35.184-6.7031-48.59-20.109l21.68-21.68c7.418 7.4648 17.164 11.172 26.91 11.172 9.7461 0 19.492-3.707 26.91-11.172 7.418-7.418 11.172-17.164 11.172-26.91 0-9.7461-3.707-19.492-11.172-26.91z"/>
  <path d="m362.61 837.39c-65.516-65.562-98.32-151.47-98.32-237.39 0-85.91 32.805-171.82 98.32-237.39 65.562-65.516 151.47-98.32 237.39-98.32 85.91 0 171.82 32.805 237.39 98.32l-21.68 21.68c-59.57-59.57-137.64-89.336-215.71-89.336-78.066 0-156.13 29.809-215.71 89.336-59.57 59.57-89.336 137.64-89.336 215.71 0 78.066 29.809 156.13 89.336 215.71z"/>
  <path d="m400.36 799.64c-55.102-55.102-82.68-127.37-82.68-199.64s27.574-144.53 82.68-199.64c55.102-55.102 127.37-82.68 199.64-82.68s144.53 27.574 199.64 82.68l-21.68 21.68c-49.113-49.16-113.54-73.691-177.96-73.691s-128.8 24.578-177.96 73.691c-49.16 49.113-73.691 113.54-73.691 177.96s24.578 128.8 73.691 177.96z"/>
  <path d="m438.11 761.89c-44.691-44.691-67.035-103.27-67.035-161.84s22.344-117.15 67.035-161.84c44.691-44.691 103.31-67.035 161.89-67.035s117.15 22.344 161.84 67.035l-21.68 21.68c-38.699-38.699-89.477-58.051-140.21-58.051s-101.46 19.352-140.16 58.051c-38.699 38.746-58.098 89.477-58.098 140.21s19.352 101.46 58.051 140.16l-21.68 21.68z"/>
  <path d="m475.86 724.14c-34.277-34.277-51.395-79.207-51.395-124.14s17.164-89.855 51.395-124.14c34.277-34.277 79.207-51.395 124.14-51.395s89.855 17.164 124.14 51.395l-21.68 21.68c-28.289-28.289-65.371-42.457-102.41-42.457-37.086 0-74.168 14.168-102.41 42.457-28.289 28.289-42.457 65.371-42.457 102.41 0 37.086 14.168 74.168 42.457 102.41z"/>
  <path d="m513.66 686.29c-23.82-23.82-35.754-55.055-35.754-86.293 0-31.234 11.934-62.426 35.754-86.293 23.82-23.914 55.102-35.848 86.34-35.848 31.234 0 62.52 11.934 86.34 35.754l-21.68 21.68c-17.828-17.875-41.27-26.766-64.66-26.766s-46.832 8.9375-64.66 26.766c-17.875 17.828-26.766 41.27-26.766 64.66 0 23.438 8.9375 46.879 26.766 64.754l-21.68 21.539z"/>
  <path d="m551.41 648.59c-13.406-13.406-20.109-31.047-20.109-48.59 0-17.59 6.7031-35.184 20.109-48.59s31.047-20.109 48.59-20.109c17.59 0 35.184 6.7031 48.59 20.109l-21.68 21.68c-7.418-7.4648-17.164-11.172-26.91-11.172s-19.492 3.707-26.91 11.125c-7.4648 7.4648-11.172 17.211-11.172 26.91 0 9.7461 3.707 19.492 11.125 26.91l-21.68 21.68z"/>
  <path d="m533.06 281.41c5.5625-34.043 16.402-67.465 32.52-98.891 15.594-30.43 36.086-58.906 61.332-84.152 65.562-65.562 151.47-98.32 237.39-98.32 85.91 0 171.82 32.805 237.39 98.32l-21.68 21.68c-59.57-59.57-137.64-89.336-215.71-89.336-78.066 0-156.13 29.809-215.71 89.336-23.152 23.152-41.789 49.016-55.863 76.402-14.598 28.527-24.484 58.859-29.523 89.906l-30.145-4.8984z"/>
  <path d="m588.26 276.51c5.5625-26.102 14.93-51.633 28.004-75.688 12.648-23.25 28.766-45.07 48.398-64.66 55.055-55.152 127.37-82.727 199.59-82.727 72.266 0 144.53 27.574 199.64 82.68l-21.68 21.68c-49.16-49.16-113.54-73.691-177.96-73.691s-128.84 24.578-177.96 73.691c-17.59 17.496-31.996 36.941-43.219 57.621-11.602 21.348-19.922 44.074-24.914 67.465l-29.953-6.3711z"/>
  <path d="m642.03 281.12c4.8984-19.922 12.504-39.367 22.867-57.719 9.9844-17.828 22.535-34.516 37.559-49.539 44.691-44.691 103.31-67.035 161.89-67.035 58.574 0 117.2 22.344 161.89 67.035l-21.68 21.68c-38.699-38.699-89.43-58.051-140.21-58.051-50.73 0-101.46 19.352-140.21 58.051-13.121 13.074-24.008 27.527-32.613 42.836-8.9844 15.785-15.594 32.664-19.777 49.969l-29.715-7.1797z"/>
  <path d="m693.57 294.96c3.6602-15.402 9.5078-30.523 17.496-44.832 7.7031-13.883 17.449-26.863 29.098-38.512 34.277-34.277 79.207-51.395 124.14-51.395s89.855 17.117 124.09 51.395l-21.68 21.68c-28.289-28.289-65.371-42.457-102.41-42.457-37.086 0-74.168 14.168-102.46 42.457-9.6992 9.6992-17.734 20.395-24.059 31.758-6.5625 11.602-11.363 24.105-14.406 36.988l-29.809-7.0859z"/>
  <path d="m743.3 319.54c1.7578-13.074 5.6094-25.957 11.555-37.941 5.7539-11.602 13.453-22.488 23.152-32.188 23.82-23.867 55.055-35.801 86.293-35.801 31.188 0 62.473 11.934 86.34 35.848l-21.68 21.539c-17.781-17.828-41.219-26.719-64.66-26.719-23.391 0-46.832 8.9375-64.66 26.766-7.3203 7.2266-13.074 15.355-17.352 24.059-4.4688 9.0352-7.3711 18.637-8.6523 28.383l-30.285-3.9453z"/>
  <path d="m815.71 384.29c-13.406-13.406-20.109-31-20.109-48.59s6.7031-35.184 20.109-48.59 31-20.109 48.59-20.109 35.184 6.7031 48.59 20.109l-21.68 21.68c-7.418-7.418-17.164-11.172-26.91-11.172s-19.492 3.707-26.91 11.172c-7.4648 7.418-11.172 17.164-11.172 26.91s3.707 19.492 11.172 26.91z"/>
  <path d="m573.09 626.91c65.516 65.562 98.32 151.47 98.32 237.39 0 85.91-32.805 171.82-98.32 237.39-65.562 65.562-151.47 98.32-237.39 98.32-85.91 0-171.82-32.758-237.39-98.32l21.68-21.68c59.57 59.57 137.64 89.336 215.71 89.336 78.066 0 156.13-29.809 215.71-89.336 59.57-59.57 89.383-137.64 89.383-215.71 0-78.066-29.809-156.13-89.383-215.71z"/>
  <path d="m535.34 664.66c55.102 55.152 82.68 127.37 82.68 199.64 0 72.219-27.574 144.48-82.68 199.64-55.102 55.102-127.37 82.68-199.64 82.68-72.219 0-144.53-27.574-199.64-82.68l21.68-21.68c49.16 49.16 113.54 73.691 177.96 73.691s128.84-24.578 177.96-73.691c49.16-49.16 73.691-113.54 73.691-177.96 0-64.375-24.578-128.8-73.691-177.91l21.68-21.68z"/>
  <path d="m497.54 702.46c44.691 44.691 67.035 103.27 67.035 161.89 0 58.574-22.344 117.15-67.035 161.89-44.691 44.691-103.27 67.035-161.89 67.035-58.574 0-117.15-22.344-161.89-67.035l21.68-21.68c38.699 38.699 89.477 58.051 140.21 58.051s101.5-19.352 140.21-58.051c38.699-38.699 58.098-89.477 58.098-140.21s-19.352-101.5-58.098-140.21z"/>
  <path d="m459.79 740.21c34.277 34.277 51.395 79.207 51.395 124.14s-17.117 89.855-51.395 124.09c-34.277 34.277-79.207 51.395-124.14 51.395s-89.855-17.117-124.09-51.395l21.68-21.68c28.289 28.289 65.371 42.457 102.41 42.457 37.086 0 74.168-14.168 102.46-42.457 28.289-28.289 42.41-65.371 42.41-102.41 0-37.086-14.168-74.168-42.41-102.46z"/>
  <path d="m422.04 777.96c23.82 23.867 35.754 55.102 35.754 86.34 0 31.234-11.934 62.52-35.754 86.34-23.867 23.82-55.102 35.754-86.387 35.754-31.188 0-62.426-11.934-86.293-35.754l21.539-21.68c17.828 17.875 41.27 26.766 64.707 26.766 23.391 0 46.832-8.9375 64.66-26.766 17.875-17.875 26.816-41.27 26.816-64.66s-8.9375-46.832-26.766-64.66l21.68-21.68z"/>
  <path d="m384.29 815.71c13.406 13.406 20.109 31 20.109 48.59s-6.7031 35.184-20.109 48.59c-13.504 13.406-31.047 20.109-48.59 20.109s-35.133-6.7031-48.543-20.109l21.539-21.68c7.4648 7.418 17.211 11.172 27.004 11.172 9.7461 0 19.492-3.707 26.957-11.125 7.418-7.4648 11.125-17.211 11.125-26.957s-3.707-19.492-11.172-26.91z"/>
  <path d="m286.31 563.25c-31.047 5.0391-61.379 14.93-89.906 29.523-27.387 14.074-53.203 32.664-76.402 55.863-59.57 59.57-89.336 137.64-89.336 215.71 0 78.066 29.809 156.13 89.336 215.71l-21.68 21.68c-65.562-65.516-98.32-151.47-98.32-237.39 0-85.91 32.758-171.82 98.32-237.39 25.293-25.293 53.723-45.738 84.152-61.332 31.426-16.117 64.848-26.957 98.891-32.52l4.8984 30.145z"/>
  <path d="m282.84 618.21c-23.344 4.9922-46.117 13.312-67.465 24.914-20.68 11.27-40.125 25.625-57.621 43.168-49.16 49.207-73.691 113.63-73.691 178 0 64.422 24.578 128.8 73.691 177.96l-21.68 21.68c-55.102-55.102-82.68-127.37-82.68-199.64s27.574-144.53 82.68-199.64c19.637-19.59 41.457-35.707 64.707-48.352 24.059-13.074 49.59-22.441 75.688-28.004l6.3711 29.953z"/>
  <path d="m288.3 671.74c-17.305 4.2305-34.137 10.793-49.969 19.73-15.309 8.6523-29.715 19.539-42.836 32.664-38.699 38.699-58.051 89.43-58.051 140.21 0 50.73 19.352 101.46 58.051 140.21l-21.68 21.68c-44.691-44.691-67.035-103.31-67.035-161.89s22.344-117.2 67.035-161.89c15.07-15.023 31.758-27.574 49.539-37.605 18.352-10.316 37.797-17.926 57.719-22.82l7.1797 29.715z"/>
  <path d="m302 723.42c-12.883 3.043-25.387 7.8438-37.035 14.359-11.316 6.3711-22.012 14.406-31.711 24.105-28.289 28.289-42.457 65.371-42.457 102.46s14.168 74.121 42.457 102.41l-21.68 21.68c-34.277-34.277-51.395-79.207-51.395-124.09 0-44.93 17.117-89.855 51.395-124.14 11.648-11.648 24.629-21.395 38.414-29.098 14.359-7.9883 29.477-13.883 44.93-17.496l7.0859 29.809z"/>
  <path d="m323.44 773.63c-9.7461 1.2852-19.352 4.1836-28.383 8.6523-8.6992 4.2773-16.832 10.078-24.059 17.305-17.875 17.926-26.766 41.363-26.766 64.754 0 23.438 8.9375 46.879 26.766 64.707l-21.68 21.539c-23.82-23.82-35.754-55.055-35.754-86.293 0-31.234 11.934-62.52 35.754-86.34 9.6992-9.6523 20.586-17.352 32.188-23.105 12.027-5.9414 24.867-9.793 37.941-11.555l3.9453 30.285z"/>
  <path d="m362.61 837.39c-7.418-7.4648-17.164-11.172-26.91-11.172s-19.492 3.707-26.91 11.172c-7.4648 7.418-11.172 17.164-11.172 26.91 0 9.793 3.707 19.539 11.172 27.004l-21.68 21.539c-13.406-13.406-20.109-31-20.109-48.543s6.7031-35.133 20.109-48.543c13.406-13.504 31-20.207 48.59-20.207s35.184 6.7031 48.59 20.109l-21.68 21.68z"/>
  <path d="m931.23 654.34c-5.5625 34.043-16.402 67.465-32.52 98.891-15.641 30.43-36.086 58.906-61.332 84.199-25.293 25.293-53.723 45.738-84.199 61.332-31.426 16.117-64.848 26.957-98.891 32.52l-4.8984-30.191c31.047-5.0391 61.379-14.93 89.906-29.523 27.434-14.023 53.25-32.664 76.402-55.863 23.152-23.152 41.789-48.969 55.863-76.402 14.645-28.527 24.484-58.859 29.523-89.906l30.191 4.8984z"/>
  <path d="m876.04 659.24c-5.5625 26.102-14.93 51.633-28.051 75.688-12.648 23.25-28.766 45.07-48.352 64.66l-0.046875 0.046874c-19.59 19.59-41.41 35.707-64.66 48.352-24.059 13.074-49.59 22.488-75.688 28.051l-6.3711-29.953c23.344-4.9922 46.07-13.312 67.465-24.914 20.633-11.27 40.125-25.672 57.672-43.168 17.543-17.543 31.949-37.035 43.168-57.672 11.602-21.348 19.922-44.074 24.914-67.465l29.953 6.3711z"/>
  <path d="m822.27 654.63c-4.8984 19.922-12.504 39.367-22.867 57.719-10.078 17.875-22.582 34.562-37.559 49.539-14.977 14.977-31.664 27.48-49.539 37.559-18.352 10.363-37.797 17.973-57.719 22.867l-7.1797-29.715c17.305-4.2305 34.137-10.84 49.969-19.73 15.168-8.5586 29.621-19.445 42.836-32.664 13.219-13.219 24.105-27.672 32.664-42.836 8.9375-15.785 15.5-32.664 19.73-49.969l29.715 7.1797z"/>
  <path d="m770.73 640.75c-3.707 15.5-9.5078 30.617-17.496 44.93-7.7969 13.883-17.496 26.863-29.098 38.461-11.602 11.602-24.578 21.301-38.461 29.051-14.262 8.0352-29.43 13.883-44.883 17.543l-7.0352-29.809c12.789-3.043 25.293-7.8438 36.988-14.406 11.27-6.2773 21.965-14.312 31.711-24.059 9.7461-9.7461 17.781-20.445 24.059-31.664 6.5625-11.742 11.363-24.246 14.406-37.086l29.809 7.0352z"/>
  <path d="m721 616.21c-1.7109 13.121-5.5625 25.957-11.555 37.941-5.8008 11.695-13.504 22.582-23.105 32.234-9.6055 9.6055-20.539 17.305-32.234 23.105-12.027 5.9414-24.867 9.793-37.941 11.555l-3.9453-30.285c9.7461-1.2852 19.301-4.1836 28.383-8.6523 8.6055-4.2305 16.781-10.031 24.059-17.352 7.3203-7.3203 13.121-15.453 17.352-24.059 4.4688-9.0352 7.3711-18.637 8.6523-28.383l30.285 3.9453z"/>
  <path d="m648.59 551.41c13.406 13.406 20.109 31.047 20.109 48.59 0 17.59-6.7031 35.184-20.109 48.59s-31.047 20.109-48.59 20.109c-17.59 0-35.184-6.7031-48.59-20.109l21.68-21.68c7.418 7.4648 17.164 11.172 26.91 11.172s19.492-3.707 26.91-11.125c7.4648-7.4648 11.172-17.211 11.172-26.91 0-9.7461-3.707-19.492-11.125-26.91l21.68-21.68z"/>
  <path d="m1101.7 1101.7c-65.516 65.562-151.47 98.32-237.39 98.32-85.91 0-171.82-32.758-237.39-98.32-7.0352-7.0352-13.977-14.691-20.824-22.914-6.5625-7.8906-12.789-16.164-18.684-24.676l25.152-17.258c5.1836 7.5586 10.84 15.07 16.973 22.395 5.6094 6.75 11.98 13.691 19.016 20.777 59.57 59.57 137.64 89.336 215.71 89.336 78.066 0 156.13-29.809 215.71-89.336l21.68 21.68z"/>
  <path d="m1063.9 1063.9c-55.102 55.102-127.37 82.68-199.64 82.68-72.219 0-144.53-27.574-199.64-82.68-9.6055-9.6992-18.496-19.969-26.531-30.715-8.2266-10.984-15.5-22.395-21.871-34.09l26.816-14.598c5.707 10.508 12.219 20.68 19.492 30.379 7.0859 9.4609 14.977 18.637 23.723 27.336 49.207 49.16 113.63 73.691 178 73.691 64.422 0 128.8-24.578 177.96-73.691l21.68 21.68z"/>
  <path d="m1026.2 1026.2c-44.691 44.691-103.27 67.035-161.89 67.035-58.574 0-117.15-22.344-161.89-67.035-14.883-14.883-27.387-31.52-37.465-49.352-10.363-18.305-17.973-37.656-22.867-57.434l29.715-7.3203c4.2773 17.305 10.84 34.043 19.73 49.777 8.5586 15.117 19.398 29.477 32.566 42.598 38.699 38.699 89.477 58.051 140.21 58.051s101.46-19.352 140.21-58.051l21.68 21.68z"/>
  <path d="m988.38 988.43c-34.277 34.277-79.207 51.395-124.09 51.395-44.93 0-89.855-17.117-124.14-51.395-11.602-11.602-21.301-24.531-29-38.273-7.8906-14.074-13.738-29.145-17.449-44.738l29.715-7.0352c3.043 12.598 7.8438 25.008 14.453 36.797 6.3242 11.27 14.312 21.918 23.961 31.57 28.289 28.289 65.371 42.457 102.46 42.457 37.086 0 74.168-14.168 102.41-42.457z"/>
  <path d="m950.63 950.63c-23.82 23.82-55.102 35.754-86.34 35.754-31.188 0-62.426-11.934-86.293-35.754-9.6523-9.5547-17.352-20.445-23.105-32.094-5.9414-11.98-9.793-24.77-11.555-37.75l30.285-4.0898c1.332 9.7461 4.2305 19.301 8.6992 28.289 4.2305 8.5586 10.031 16.688 17.305 23.961 17.828 17.875 41.27 26.766 64.66 26.766 23.391 0 46.832-8.9375 64.66-26.766z"/>
  <path d="m912.84 912.93c-13.406 13.406-31 20.109-48.543 20.109s-35.133-6.7031-48.543-20.109c-13.504-13.406-20.207-31-20.207-48.59s6.7031-35.184 20.109-48.59l21.68 21.68c-7.4648 7.418-11.172 17.164-11.172 26.91s3.707 19.492 11.172 26.91c7.3711 7.4648 17.164 11.172 26.91 11.172 9.793 0 19.539-3.707 27.004-11.172l21.539 21.68z"/>
  <path d="m1054.1 587.4c8.2734 5.6562 16.496 11.934 24.676 18.73 8.2266 6.8477 15.879 13.789 22.914 20.824 65.562 65.562 98.32 151.47 98.32 237.39 0 85.91-32.805 171.82-98.32 237.39l-21.68-21.68c59.57-59.57 89.336-137.64 89.336-215.71 0-78.066-29.809-156.13-89.336-215.71-7.0352-7.0352-13.977-13.406-20.777-19.066-7.0859-5.8945-14.547-11.555-22.395-16.926l17.258-25.246z"/>
  <path d="m999.13 616.26c11.695 6.3711 23.105 13.645 34.043 21.871 10.934 8.1758 21.203 17.02 30.715 26.531 55.102 55.102 82.68 127.37 82.68 199.64 0 72.219-27.574 144.53-82.68 199.64l-21.68-21.68c49.16-49.16 73.691-113.54 73.691-177.96s-24.578-128.84-73.691-177.96c-8.8906-8.8906-18.02-16.832-27.336-23.82-9.6992-7.2734-19.875-13.738-30.379-19.445l14.598-26.816z"/>
  <path d="m918.88 642.03c19.922 4.8984 39.367 12.504 57.719 22.867 17.828 9.9844 34.516 22.535 49.539 37.559 44.691 44.691 67.035 103.27 67.035 161.89 0 58.574-22.344 117.15-67.035 161.89l-21.68-21.68c38.699-38.699 58.051-89.477 58.051-140.21 0-50.73-19.352-101.5-58.051-140.21-13.074-13.121-27.527-24.008-42.836-32.613-15.785-8.9844-32.664-15.594-49.969-19.777l7.1797-29.715z"/>
  <path d="m905.04 693.57c15.402 3.6602 30.523 9.5078 44.883 17.496 13.883 7.7031 26.816 17.449 38.512 29.098 34.277 34.277 51.395 79.207 51.395 124.14s-17.117 89.855-51.395 124.09l-21.68-21.68c28.289-28.289 42.457-65.371 42.457-102.41 0-37.086-14.168-74.168-42.457-102.46-9.6992-9.6992-20.395-17.734-31.711-24.059-11.648-6.5625-24.152-11.363-36.988-14.406l7.0352-29.809z"/>
  <path d="m880.51 743.34c13.074 1.7578 25.957 5.6094 37.941 11.555 11.695 5.8008 22.582 13.504 32.188 23.105 23.82 23.914 35.754 55.152 35.754 86.34 0 31.234-11.934 62.52-35.754 86.34l-21.68-21.68c17.875-17.875 26.766-41.27 26.766-64.66 0-23.438-8.9375-46.879-26.719-64.66-7.3711-7.3203-15.5-13.074-24.105-17.352-9.0352-4.4688-18.637-7.3711-28.336-8.6523l3.9453-30.285z"/>
  <path d="m815.71 815.71c13.406-13.406 31-20.109 48.59-20.109s35.184 6.7031 48.59 20.109 20.109 31 20.109 48.59-6.7031 35.184-20.109 48.59l-21.68-21.68c7.418-7.418 11.172-17.164 11.172-26.91s-3.707-19.492-11.172-26.91c-7.418-7.4648-17.164-11.172-26.91-11.172s-19.492 3.707-26.91 11.172z"/>
  <path d="m145.91 612.6c-8.5586-5.8945-16.781-12.125-24.676-18.684-8.2266-6.8477-15.879-13.789-22.914-20.824-65.562-65.562-98.32-151.47-98.32-237.39 0-85.91 32.758-171.82 98.32-237.39l21.68 21.68c-59.57 59.57-89.336 137.64-89.336 215.71 0 78.066 29.809 156.13 89.336 215.71 7.0352 7.0352 13.977 13.406 20.777 19.016 7.3711 6.1328 14.832 11.789 22.395 16.973l-17.258 25.152z"/>
  <path d="m200.87 583.74c-11.695-6.3711-23.105-13.691-34.09-21.871-10.746-8.0352-21.016-16.879-30.664-26.578-55.152-55.055-82.727-127.37-82.727-199.59 0-72.266 27.574-144.53 82.68-199.64l21.68 21.68c-49.16 49.16-73.691 113.54-73.691 177.96s24.578 128.84 73.691 177.96c8.6992 8.7969 17.875 16.688 27.336 23.773 9.6992 7.2734 19.875 13.738 30.379 19.492l-14.598 26.816z"/>
  <path d="m280.6 557.88c-19.777-4.8984-39.129-12.504-57.434-22.867-17.781-10.078-34.422-22.582-49.352-37.465-44.691-44.691-67.035-103.31-67.035-161.89s22.344-117.2 67.035-161.89l21.68 21.68c-38.699 38.699-58.051 89.43-58.051 140.21 0 50.73 19.352 101.46 58.051 140.21 13.168 13.168 27.527 24.008 42.598 32.566 15.738 8.8906 32.473 15.453 49.777 19.73l-7.3203 29.715z"/>
  <path d="m294.63 506.29c-15.547-3.707-30.664-9.5547-44.738-17.449-13.738-7.7031-26.672-17.402-38.273-29-34.277-34.277-51.395-79.207-51.395-124.14 0-44.93 17.117-89.855 51.395-124.09l21.68 21.68c-28.289 28.289-42.457 65.371-42.457 102.41 0 37.086 14.168 74.168 42.457 102.46 9.6523 9.6523 20.301 17.637 31.57 23.961 11.789 6.6094 24.199 11.457 36.797 14.453z"/>
  <path d="m319.21 456.66c-13.027-1.7578-25.816-5.6094-37.75-11.555-11.648-5.7539-22.535-13.453-32.094-23.012-23.82-23.914-35.754-55.152-35.754-86.34 0-31.234 11.934-62.52 35.754-86.34l21.68 21.68c-17.875 17.828-26.766 41.27-26.766 64.66 0 23.438 8.9375 46.879 26.766 64.707 7.3203 7.2734 15.402 13.027 23.961 17.258 8.9844 4.4688 18.59 7.3711 28.289 8.6992l-4.0898 30.285z"/>
  <path d="m384.29 384.29c-13.406 13.406-31 20.109-48.59 20.109s-35.184-6.7031-48.59-20.109c-13.406-13.504-20.109-31.047-20.109-48.59s6.7031-35.133 20.109-48.543l21.68 21.539c-7.418 7.4648-11.172 17.211-11.172 27.004 0 9.7461 3.707 19.539 11.125 26.957 7.4648 7.418 17.211 11.125 26.957 11.125s19.492-3.707 26.91-11.172z"/>
  <path d="m587.35 163.17c-5.3711-7.8438-11.031-15.309-16.926-22.395-5.6562-6.75-11.98-13.691-19.066-20.777-59.57-59.57-137.64-89.336-215.71-89.336-78.066 0-156.13 29.809-215.71 89.336l-21.68-21.68c65.516-65.562 151.47-98.32 237.39-98.32 85.91 0 171.82 32.805 237.39 98.32 7.0352 7.0352 13.977 14.691 20.824 22.914 6.7969 8.1758 13.027 16.402 18.73 24.676l-25.246 17.258z"/>
  <path d="m556.88 215.47c-5.707-10.508-12.219-20.68-19.445-30.379-6.9883-9.3203-14.93-18.445-23.82-27.336-49.113-49.16-113.54-73.691-177.96-73.691s-128.8 24.578-177.96 73.691l-21.68-21.68c55.102-55.102 127.37-82.68 199.64-82.68s144.53 27.574 199.64 82.68c9.5078 9.5078 18.352 19.777 26.531 30.715 8.2266 10.934 15.5 22.344 21.871 34.043l-26.816 14.598z"/>
  <path d="m528.26 288.3c-4.2305-17.305-10.793-34.137-19.73-49.969-8.6523-15.309-19.539-29.715-32.664-42.836-38.699-38.699-89.43-58.051-140.21-58.051-50.73 0-101.46 19.352-140.21 58.051l-21.68-21.68c44.691-44.691 103.31-67.035 161.89-67.035s117.2 22.344 161.89 67.035c15.023 15.07 27.574 31.758 37.605 49.539 10.316 18.352 17.926 37.797 22.82 57.719l-29.715 7.1797z"/>
  <path d="m476.62 302c-3.043-12.883-7.8438-25.387-14.359-37.035-6.3711-11.316-14.406-22.012-24.105-31.711-28.289-28.289-65.371-42.457-102.46-42.457s-74.121 14.168-102.41 42.457l-21.68-21.68c34.277-34.277 79.207-51.395 124.09-51.395 44.93 0 89.855 17.117 124.14 51.395 11.648 11.648 21.395 24.629 29.098 38.414 7.9883 14.359 13.883 29.477 17.496 44.93l-29.809 7.0352z"/>
  <path d="m426.37 323.44c-1.2852-9.6992-4.1836-19.301-8.6523-28.336-4.2773-8.6055-10.031-16.781-17.352-24.059-17.781-17.875-41.219-26.766-64.66-26.766-23.391 0-46.832 8.9375-64.66 26.766l-21.68-21.68c23.82-23.867 55.102-35.754 86.34-35.754 31.188 0 62.426 11.934 86.293 35.801 9.6523 9.5547 17.352 20.492 23.152 32.188 5.9414 11.98 9.793 24.867 11.555 37.941l-30.285 3.9453z"/>
  <path d="m362.61 362.61c7.4648-7.418 11.172-17.164 11.172-26.91s-3.707-19.492-11.172-26.91c-7.418-7.418-17.164-11.172-26.91-11.172s-19.492 3.707-26.91 11.172l-21.68-21.68c13.406-13.406 31-20.109 48.59-20.109s35.184 6.7031 48.59 20.109 20.109 31 20.109 48.59-6.7031 35.184-20.109 48.59z"/>
 </g>
</svg>
